<?xml version="1.0" encoding="UTF-8" standalone="no"?>
<svg
   xmlns:dc="http://purl.org/dc/elements/1.1/"
   xmlns:cc="http://creativecommons.org/ns#"
   xmlns:rdf="http://www.w3.org/1999/02/22-rdf-syntax-ns#"
   xmlns:svg="http://www.w3.org/2000/svg"
   xmlns="http://www.w3.org/2000/svg"
   viewBox="0 0 465.12 238.75"
   height="238.75"
   width="465.12"
   xml:space="preserve"
   version="1.1"
   id="svg3355"><metadata
     id="metadata3361"><rdf:RDF><cc:Work
         rdf:about=""><dc:format>image/svg+xml</dc:format><dc:type
           rdf:resource="http://purl.org/dc/dcmitype/StillImage" /><dc:title></dc:title></cc:Work></rdf:RDF></metadata><defs
     id="defs3359"><clipPath
       id="clipPath3369"
       clipPathUnits="userSpaceOnUse"><path
         id="path3371"
         d="m 0,191 372.096,0 0,-191 L 0,0 0,191 Z" /></clipPath></defs><g
     transform="matrix(1.25,0,0,-1.25,0,238.75)"
     id="g3363"><g
       id="g3365"><g
         clip-path="url(#clipPath3369)"
         id="g3367"><g
           transform="translate(174.6699,110.5313)"
           id="g3373"><path
             id="path3375"
             style="fill:#393536;fill-opacity:1;fill-rule:nonzero;stroke:none"
             d="m 0,0 c 0,7.506 -2.252,12.385 -4.129,14.824 -1.688,2.064 -4.315,3.753 -8.819,3.753 -3.941,0 -7.319,-1.313 -10.133,-4.691 C -27.209,8.631 -28.335,0 -28.335,-7.318 c 0,-6.006 1.502,-12.01 4.691,-14.825 2.627,-2.627 5.442,-4.128 10.696,-4.128 C -3.19,-26.271 0,-13.324 0,0 m -25.708,-66.239 c -5.254,-1.501 -11.447,-7.505 -11.447,-15.011 0,-5.254 3.191,-10.883 6.756,-12.949 5.817,-3.377 11.072,-4.502 21.955,-4.502 9.757,0 25.894,5.629 25.519,16.699 0,10.885 -7.881,17.639 -25.894,16.889 l -16.889,-1.126 z m -18.765,-33.964 c -6.755,3.941 -9.381,8.818 -9.381,14.824 0,10.133 10.507,17.264 19.515,21.016 l 0,1.127 c -8.258,1.875 -12.762,7.881 -12.762,13.884 0,10.133 10.51,16.514 16.139,19.141 l 0,0.375 c -7.131,4.129 -16.139,12.009 -16.139,27.959 0,12.385 10.51,27.398 34.715,27.398 16.139,0 23.645,-8.633 25.521,-10.697 4.503,3.565 11.071,6.944 15.95,6.944 6.943,0 10.133,-4.129 9.758,-9.008 0,-3.752 -3.379,-7.506 -7.506,-7.506 -2.815,0 -4.691,1.502 -5.817,2.627 -1.501,1.127 -3.002,2.252 -4.503,2.252 -1.127,0 -3.003,0 -4.504,-1.125 1.125,-2.252 2.252,-6.381 2.252,-12.386 0,-7.317 -2.252,-14.823 -7.882,-20.828 -6.005,-6.38 -15.012,-8.632 -23.831,-8.632 -4.129,0 -6.755,0 -10.696,0.75 -3.377,-1.501 -8.068,-4.879 -8.068,-9.382 0,-7.506 7.13,-7.506 23.643,-6.756 14.261,0.751 23.643,-0.374 31.9,-7.129 7.506,-5.629 9.383,-12.76 9.383,-18.389 0,-8.258 -3.379,-15.387 -11.635,-21.768 -6.005,-4.879 -19.141,-10.884 -36.779,-10.508 -9.007,0 -21.016,1.125 -29.273,5.817" /></g><g
           transform="translate(228.333,109.0303)"
           id="g3377"><path
             id="path3379"
             style="fill:#393536;fill-opacity:1;fill-rule:nonzero;stroke:none"
             d="m 0,0 c 0,5.629 -1.127,9.382 -9.758,11.634 -1.687,0.375 -1.875,0.938 -1.875,1.689 l 0,2.064 c 0,0.751 0.375,1.126 1.313,1.501 2.627,1.127 21.205,7.693 24.396,9.007 1.875,0.751 3.377,1.126 4.5,1.126 1.129,0 1.692,-0.75 1.502,-2.252 C 19.705,21.767 19.705,9.758 19.705,-5.817 l 0,-20.266 c 0,-7.131 0,-13.886 0.373,-16.138 0.375,-3.377 1.127,-4.878 3.004,-4.878 l 7.506,0 c 1.5,0 1.875,-0.376 1.875,-1.314 l 0,-3.754 c 0,-1.125 -0.375,-1.875 -1.5,-1.875 -1.502,0 -10.133,0.563 -22.707,0.563 -10.883,0 -18.014,-0.563 -20.266,-0.563 -0.937,0 -1.5,0.375 -1.5,1.875 l 0,3.566 c 0,1.126 0.75,1.502 1.877,1.502 l 8.256,0 c 1.877,0 2.815,0.75 3.002,3.752 C -0.187,-37.718 0,-31.712 0,-26.458 L 0,0 Z" /></g><g
           transform="translate(291.1943,134.5508)"
           id="g3381"><path
             id="path3383"
             style="fill:#393536;fill-opacity:1;fill-rule:nonzero;stroke:none"
             d="m 0,0 c 1.502,0.75 2.625,1.501 3.75,1.501 1.127,0 1.879,-0.751 2.252,-2.253 l 1.502,-9.757 1.127,0 c 2.252,2.626 5.629,5.63 9.383,7.506 4.502,2.627 9.382,4.504 15.011,4.504 6.379,0 12.385,-1.127 16.514,-4.504 8.254,-6.005 10.32,-11.634 10.32,-19.328 l 0,-27.022 c 0,-6.004 -0.187,-14.26 -0.187,-18.013 0,-4.128 2.252,-5.253 4.502,-5.253 l 5.254,0 c 1.689,0 2.252,-0.376 2.252,-1.315 l 0,-4.316 c 0,-0.938 -0.377,-1.313 -1.5,-1.313 -1.502,0 -7.131,0.563 -20.268,0.563 -11.258,0 -17.264,-0.563 -18.389,-0.563 -1.125,0 -1.5,0.75 -1.5,2.252 l 0,3.19 c 0,1.126 0.375,1.502 2.252,1.502 l 3.752,0 c 1.502,0 3.002,1.125 3.377,4.503 0.563,4.878 0.752,10.133 0.752,17.637 l 0,21.581 c 0,7.505 -0.377,12.384 -4.881,16.137 -3.752,3.378 -7.13,3.378 -11.257,3.378 -3,0 -7.506,-0.751 -12.01,-4.879 -3.002,-3.002 -3.94,-8.256 -3.94,-13.322 l 0,-38.656 c 0,-4.128 0.938,-6.379 3.563,-6.379 l 3.381,0 c 1.5,0 1.875,-0.376 1.875,-1.69 l 0,-3.379 c 0,-1.125 -0.375,-1.875 -1.498,-1.875 -1.129,0 -6.383,0.563 -17.641,0.563 -11.635,0 -17.641,-0.563 -18.766,-0.563 -0.75,0 -1.125,0.75 -1.125,1.875 l 0,3.567 c 0,1.126 0.375,1.502 1.875,1.502 l 3.754,0 c 2.25,0 4.879,0.75 4.879,3.752 l 0,42.221 c 0,5.628 -3.377,8.63 -7.881,10.883 l -1.502,0.751 c -1.125,0.375 -1.502,1.125 -1.502,1.875 l 0,1.502 c 0,0.75 0.752,1.501 1.879,1.877 L 0,0 Z" /></g><g
           transform="translate(249.1162,142.9512)"
           id="g3385"><path
             id="path3387"
             style="fill:#2854a4;fill-opacity:1;fill-rule:nonzero;stroke:none"
             d="M 0,0 C 6.14,-2.907 13.002,-4.538 20.247,-4.539 27.493,-4.538 34.356,-2.908 40.495,0 34.355,2.906 27.492,4.538 20.248,4.538 13.003,4.538 6.14,2.904 0,0" /></g><g
           transform="translate(249.1162,142.9512)"
           id="g3389"><path
             id="path3391"
             style="fill:#2854a4;fill-opacity:1;fill-rule:nonzero;stroke:none"
             d="m 0,0 c 6.396,2.286 12.402,5.984 17.525,11.108 5.123,5.124 8.825,11.13 11.108,17.527 C 22.237,26.349 16.23,22.649 11.109,17.527 5.985,12.404 2.287,6.396 0,0" /></g><g
           transform="translate(109.0508,127.2578)"
           id="g3393"><path
             id="path3395"
             style="fill:#2854a4;fill-opacity:1;fill-rule:nonzero;stroke:none"
             d="m 0,0 c 0.07,2.263 -0.75,4.549 -2.478,6.276 l -33.984,33.984 0,6.076 1.69,0 c 3,0 5.431,2.432 5.431,5.432 0,3 -2.431,5.431 -5.431,5.431 l -31.381,0 c -3,0 -5.432,-2.431 -5.432,-5.431 0,-3 2.432,-5.432 5.432,-5.432 l 1.691,0 0,-6.59 -33.471,-33.47 c -1.879,-1.879 -2.692,-4.418 -2.445,-6.87 -0.029,-0.284 -0.045,-0.573 -0.045,-0.865 l 0,-61.508 c 0,-4.601 3.729,-8.33 8.33,-8.33 l 83.9,0 c 4.6,0 8.329,3.729 8.329,8.33 l 0,61.508 C 0.136,-0.96 0.084,-0.475 0,0" /></g><g
           transform="translate(109.0508,127.2578)"
           id="g3397"><path
             id="path3399"
             style="fill:#2854a4;fill-opacity:1;fill-rule:nonzero;stroke:none"
             d="m 0,0 c 0.07,2.263 -0.75,4.549 -2.478,6.276 l -33.984,33.984 0,6.076 1.69,0 c 3,0 5.431,2.432 5.431,5.432 0,3 -2.431,5.431 -5.431,5.431 l -31.381,0 c -3,0 -5.432,-2.431 -5.432,-5.431 0,-3 2.432,-5.432 5.432,-5.432 l 1.691,0 0,-6.59 -33.471,-33.47 c -1.879,-1.879 -2.692,-4.418 -2.445,-6.87 -0.029,-0.284 -0.045,-0.573 -0.045,-0.865 l 0,-61.508 c 0,-4.601 3.729,-8.33 8.33,-8.33 l 83.9,0 c 4.6,0 8.329,3.729 8.329,8.33 l 0,61.508 C 0.136,-0.96 0.084,-0.475 0,0" /></g><g
           transform="translate(73.0205,131.6885)"
           id="g3401"><path
             id="path3403"
             style="fill:#ffffff;fill-opacity:1;fill-rule:nonzero;stroke:none"
             d="M 0,0 C 5.637,0 10.975,1.269 15.752,3.53 10.975,5.792 5.636,7.061 0,7.061 c -4.109,0 -8.058,-0.682 -11.748,-1.924 3.552,1.741 6.884,4.083 9.836,7.035 3.986,3.986 6.863,8.658 8.643,13.635 C 1.754,24.027 -2.918,21.15 -6.904,17.164 -10.859,13.209 -13.722,8.575 -15.503,3.64 -15.585,3.602 -15.67,3.569 -15.752,3.53 -10.976,1.269 -5.637,0 0,0 m -43.081,-3.825 c -5.637,0 -10.976,-1.27 -15.752,-3.53 4.776,-2.262 10.115,-3.531 15.752,-3.531 4.223,0 8.278,0.713 12.056,2.021 -3.626,-1.75 -7.026,-4.124 -10.035,-7.133 -3.984,-3.984 -6.863,-8.657 -8.641,-13.634 4.977,1.778 9.649,4.657 13.634,8.642 3.972,3.972 6.841,8.627 8.624,13.585 0.037,0.017 0.077,0.032 0.114,0.05 -4.777,2.261 -10.116,3.53 -15.752,3.53 m 0.206,24.693 24.565,-24.566 c 1.32,0.812 2.868,1.289 4.531,1.289 4.782,10e-4 8.659,-3.877 8.659,-8.66 0,-1.609 -0.446,-3.11 -1.211,-4.401 l 11.72,-11.284 c 1.261,0.718 2.716,1.132 4.271,1.132 4.782,0.001 8.659,-3.877 8.659,-8.66 0,-4.782 -3.877,-8.659 -8.659,-8.659 -4.783,0 -8.66,3.877 -8.66,8.659 0,1.408 0.343,2.733 0.939,3.908 l -11.958,11.514 c -0.405,-0.196 -0.824,-0.367 -1.26,-0.498 l 0,-31.486 c 3.739,-0.958 6.507,-4.341 6.507,-8.38 0,-4.782 -3.877,-8.659 -8.66,-8.659 -4.783,0 -8.66,3.877 -8.66,8.659 0,3.785 2.431,6.994 5.813,8.172 l 0,31.694 c -3.564,1.073 -6.16,4.376 -6.16,8.289 0,1.297 0.293,2.522 0.803,3.627 l -24.779,24.779" /></g><g
           transform="translate(248.0732,154.999)"
           id="g3405"><path
             id="path3407"
             style="fill:#2854a4;fill-opacity:1;fill-rule:nonzero;stroke:none"
             d="m 0,0 c 0,-7.171 -5.813,-12.984 -12.984,-12.984 -7.171,0 -12.985,5.813 -12.985,12.984 0,7.171 5.814,12.984 12.985,12.984 C -5.813,12.984 0,7.171 0,0" /></g></g></g></g></svg>