<?xml version="1.0" encoding="UTF-8" standalone="no"?>
<!-- Generator: Adobe Illustrator 23.0.3, SVG Export Plug-In . SVG Version: 6.00 Build 0)  -->

<svg
   xmlns:dc="http://purl.org/dc/elements/1.1/"
   xmlns:cc="http://creativecommons.org/ns#"
   xmlns:rdf="http://www.w3.org/1999/02/22-rdf-syntax-ns#"
   xmlns:svg="http://www.w3.org/2000/svg"
   xmlns="http://www.w3.org/2000/svg"
   xmlns:sodipodi="http://sodipodi.sourceforge.net/DTD/sodipodi-0.dtd"
   xmlns:inkscape="http://www.inkscape.org/namespaces/inkscape"
   version="1.1"
   id="Layer_1"
   x="0px"
   y="0px"
   viewBox="0 0 803.56 407.08"
   style="enable-background:new 0 0 803.56 407.08;"
   xml:space="preserve"
   sodipodi:docname="GNode_Logo_CMYK.svg"
   inkscape:version="0.92.3 (2405546, 2018-03-11)"><metadata
   id="metadata55"><rdf:RDF><cc:Work
       rdf:about=""><dc:format>image/svg+xml</dc:format><dc:type
         rdf:resource="http://purl.org/dc/dcmitype/StillImage" /></cc:Work></rdf:RDF></metadata><defs
   id="defs53" /><sodipodi:namedview
   pagecolor="#ffffff"
   bordercolor="#666666"
   borderopacity="1"
   objecttolerance="10"
   gridtolerance="10"
   guidetolerance="10"
   inkscape:pageopacity="0"
   inkscape:pageshadow="2"
   inkscape:window-width="2560"
   inkscape:window-height="1412"
   id="namedview51"
   showgrid="false"
   inkscape:zoom="0.42560605"
   inkscape:cx="128.05269"
   inkscape:cy="203.53999"
   inkscape:window-x="0"
   inkscape:window-y="0"
   inkscape:window-maximized="1"
   inkscape:current-layer="Layer_1" />
<style
   type="text/css"
   id="style2">
	.st0{fill:#204B8F;}
	.st1{font-family:'Arial-BoldMT';}
	.st2{font-size:125px;}
	.st3{letter-spacing:-3;}
	.st4{fill-rule:evenodd;clip-rule:evenodd;fill:#204B8F;}
	.st5{fill-rule:evenodd;clip-rule:evenodd;fill:#2E519C;}
	.st6{fill-rule:evenodd;clip-rule:evenodd;fill:#698DBF;}
	.st7{fill-rule:evenodd;clip-rule:evenodd;fill:#C8DAF2;}
	.st8{fill-rule:evenodd;clip-rule:evenodd;fill:#78A2D4;}
</style>
<text
   transform="matrix(1 0 0 1 274.0284 376.6304)"
   class="st0 st1 st2 st3"
   id="text4"><tspan
     style="-inkscape-font-specification:'ITC Officina Sans Book, Medium';font-family:'ITC Officina Sans Book';font-weight:500;font-style:normal;font-stretch:normal;font-variant:normal;font-size:125px;text-anchor:start;text-align:start;writing-mode:lr;font-variant-ligatures:normal;font-variant-caps:normal;font-variant-numeric:normal;font-feature-settings:normal"
     id="tspan862">G-Node</tspan></text>

<g
   id="g48">
	<path
   class="st4"
   d="M220.25,170.62c1.84-17.57,16.47-30.44,32.67-28.73c16.2,1.71,27.84,17.34,25.99,34.91   c-1.85,17.58-16.47,30.44-32.67,28.74C230.05,203.83,218.41,188.2,220.25,170.62L220.25,170.62z"
   id="path6" />
	<path
   class="st4"
   d="M137.57,195.5c1.75-16.66,16.3-28.78,32.5-27.07c16.2,1.71,27.91,16.59,26.17,33.25   c-1.75,16.66-16.3,28.78-32.5,27.07C147.54,227.05,135.83,212.16,137.57,195.5L137.57,195.5z"
   id="path8" />
	<path
   class="st4"
   d="M173.58,135.22c1.28-12.23,12.23-21.1,24.46-19.81c12.23,1.28,21.1,12.24,19.82,24.47   c-1.28,12.23-12.24,21.09-24.46,19.81C181.16,158.39,172.29,147.44,173.58,135.22L173.58,135.22z"
   id="path10" />
	<path
   class="st4"
   d="M198.69,231.9c1.28-12.23,12.23-21.1,24.46-19.81c12.23,1.29,21.1,12.24,19.82,24.47   c-1.28,12.23-12.24,21.1-24.46,19.81C206.29,255.09,197.41,244.13,198.69,231.9L198.69,231.9z"
   id="path12" />
	<path
   class="st5"
   d="M270.84,137c-2.73-6.76,2.74-15.35,12.23-19.18c9.49-3.83,19.4-1.46,22.13,5.3   c2.74,6.76-2.74,15.34-12.23,19.18C283.49,146.13,273.58,143.76,270.84,137L270.84,137z"
   id="path14" />
	<path
   class="st5"
   d="M114.26,256c-4.05-10-0.47-20.88,8-24.3c8.47-3.42,18.61,1.92,22.66,11.92c4.05,10,0.47,20.89-8,24.31   C128.45,271.35,118.31,266.01,114.26,256L114.26,256z"
   id="path16" />
	<path
   class="st5"
   d="M222.28,98.88c3.87-7.28,12.98-10.01,20.34-6.09c7.37,3.92,10.2,13,6.33,20.28c-3.87,7.28-12.98,10-20.34,6.08   C221.25,115.24,218.42,106.16,222.28,98.88L222.28,98.88z"
   id="path18" />
	<path
   class="st5"
   d="M156.86,267.8c0.96-9.17,10.29-15.71,20.84-14.6c10.55,1.11,18.32,9.45,17.36,18.62   c-0.96,9.17-10.29,15.71-20.85,14.6C163.67,285.31,155.9,276.97,156.86,267.8L156.86,267.8z"
   id="path20" />
	<path
   class="st6"
   d="M314.24,114.16c0.64-6.09,7.43-10.37,15.18-9.56c7.74,0.81,13.5,6.41,12.86,12.51   c-0.64,6.09-7.43,10.37-15.18,9.56C319.35,125.86,313.6,120.26,314.24,114.16L314.24,114.16z"
   id="path22" />
	<path
   class="st7"
   d="M355.11,106.1c0.51-4.84,6.89-8.14,14.24-7.37c7.36,0.78,12.91,5.33,12.41,10.18   c-0.5,4.84-6.88,8.14-14.24,7.37C360.16,115.5,354.6,110.94,355.11,106.1L355.11,106.1z"
   id="path24" />
	<path
   class="st6"
   d="M233.32,67.25c0.55-5.3,6.97-8.97,14.33-8.2c7.36,0.77,12.87,5.7,12.31,11c-0.55,5.3-6.97,8.97-14.33,8.2   C238.27,77.47,232.76,72.55,233.32,67.25L233.32,67.25z"
   id="path26" />
	<path
   class="st8"
   d="M183.32,344.32c-0.79-4.5,3.82-9.07,10.31-10.22c6.49-1.14,12.39,1.58,13.19,6.08   c0.79,4.5-3.82,9.07-10.31,10.21C190.02,351.53,184.11,348.81,183.32,344.32L183.32,344.32z"
   id="path28" />
	<path
   class="st6"
   d="M79.32,250.92c3.94-4.7,12.25-4.2,18.57,1.11c6.31,5.3,8.24,13.41,4.31,18.11   c-3.94,4.69-12.25,4.19-18.57-1.11C77.31,263.72,75.38,255.61,79.32,250.92L79.32,250.92z"
   id="path30" />
	<path
   class="st8"
   d="M42.37,263.68c2.52-4.03,10.46-3.61,17.74,0.94c7.28,4.55,11.13,11.51,8.62,15.55   c-2.52,4.03-10.46,3.61-17.74-0.94C43.71,274.68,39.85,267.72,42.37,263.68L42.37,263.68z"
   id="path32" />
	<path
   class="st7"
   d="M10.85,275.85c1.96-3.13,8.93-2.3,15.58,1.86c6.65,4.16,10.45,10.07,8.5,13.19   c-1.96,3.13-8.93,2.29-15.58-1.86C12.7,284.89,8.9,278.98,10.85,275.85L10.85,275.85z"
   id="path34" />
	<path
   class="st7"
   d="M229.82,31.9c0.47-4.54,5.43-7.74,11.07-7.15c5.64,0.59,9.82,4.76,9.34,9.3c-0.47,4.54-5.43,7.74-11.07,7.15   C233.53,40.61,229.34,36.44,229.82,31.9L229.82,31.9z"
   id="path36" />
	<path
   class="st7"
   d="M191.71,372.96c-0.75-4.23,3.29-8.48,9.02-9.49c5.72-1.01,10.98,1.6,11.72,5.83c0.75,4.23-3.29,8.48-9.02,9.49   C197.71,379.8,192.46,377.19,191.71,372.96L191.71,372.96z"
   id="path38" />
	<path
   class="st5"
   d="M122.36,134.86c0.87-8.26,9.26-14.13,18.76-13.14c9.49,1,16.49,8.5,15.62,16.76   c-0.87,8.25-9.27,14.14-18.76,13.14C128.49,150.62,121.49,143.11,122.36,134.86L122.36,134.86z"
   id="path40" />
	<path
   class="st6"
   d="M102.68,97.77c0.59-5.64,6.98-9.59,14.26-8.82c7.28,0.77,12.71,5.96,12.12,11.6   c-0.59,5.64-6.98,9.59-14.26,8.82C107.52,108.59,102.09,103.4,102.68,97.77L102.68,97.77z"
   id="path42" />
	<path
   class="st7"
   d="M72.83,71.63c0.43-4.08,5.72-6.88,11.81-6.23c6.1,0.64,10.69,4.47,10.26,8.56c-0.43,4.09-5.71,6.87-11.81,6.23   C77,79.54,72.41,75.71,72.83,71.63L72.83,71.63z"
   id="path44" />
	<path
   class="st6"
   d="M174.1,320.42c-3.69-4.89-1.35-12.88,5.24-17.84c6.59-4.96,14.92-5.02,18.61-0.12   c3.69,4.89,1.34,12.88-5.24,17.85C186.13,325.26,177.79,325.31,174.1,320.42L174.1,320.42z"
   id="path46" />
</g>
</svg>