<?xml version="1.0" encoding="UTF-8" standalone="no"?>
<!-- Generator: Adobe Illustrator 23.0.3, SVG Export Plug-In . SVG Version: 6.00 Build 0)  -->

<svg
   xmlns:dc="http://purl.org/dc/elements/1.1/"
   xmlns:cc="http://creativecommons.org/ns#"
   xmlns:rdf="http://www.w3.org/1999/02/22-rdf-syntax-ns#"
   xmlns:svg="http://www.w3.org/2000/svg"
   xmlns="http://www.w3.org/2000/svg"
   xmlns:sodipodi="http://sodipodi.sourceforge.net/DTD/sodipodi-0.dtd"
   xmlns:inkscape="http://www.inkscape.org/namespaces/inkscape"
   version="1.1"
   id="Layer_1"
   x="0px"
   y="0px"
   viewBox="0 0 803.56 407.08"
   style="enable-background:new 0 0 803.56 407.08;"
   xml:space="preserve"
   sodipodi:docname="GNode_Logo_ext_RGB.svg"
   inkscape:version="0.92.3 (2405546, 2018-03-11)"><metadata
   id="metadata57"><rdf:RDF><cc:Work
       rdf:about=""><dc:format>image/svg+xml</dc:format><dc:type
         rdf:resource="http://purl.org/dc/dcmitype/StillImage" /></cc:Work></rdf:RDF></metadata><defs
   id="defs55" /><sodipodi:namedview
   pagecolor="#ffffff"
   bordercolor="#666666"
   borderopacity="1"
   objecttolerance="10"
   gridtolerance="10"
   guidetolerance="10"
   inkscape:pageopacity="0"
   inkscape:pageshadow="2"
   inkscape:window-width="2560"
   inkscape:window-height="1412"
   id="namedview53"
   showgrid="false"
   inkscape:zoom="0.42560605"
   inkscape:cx="128.05269"
   inkscape:cy="203.53999"
   inkscape:window-x="0"
   inkscape:window-y="0"
   inkscape:window-maximized="1"
   inkscape:current-layer="Layer_1" />
<style
   type="text/css"
   id="style2">
	.st0{fill-rule:evenodd;clip-rule:evenodd;fill:#0C429B;}
	.st1{fill-rule:evenodd;clip-rule:evenodd;fill:#2455A5;}
	.st2{fill-rule:evenodd;clip-rule:evenodd;fill:#557BB9;}
	.st3{fill-rule:evenodd;clip-rule:evenodd;fill:#B6C7E1;}
	.st4{fill-rule:evenodd;clip-rule:evenodd;fill:#6D8EC3;}
	.st5{fill:#0C429B;}
	.st6{font-family:'Arial-BoldMT';}
	.st7{font-size:115px;}
	.st8{letter-spacing:-2;}
	.st9{font-size:28px;}
</style>
<g
   id="g46">
	<path
   class="st0"
   d="M220.25,170c1.84-17.57,16.47-30.44,32.67-28.73c16.2,1.71,27.84,17.34,25.99,34.91   c-1.85,17.58-16.47,30.44-32.67,28.74C230.05,203.2,218.41,187.57,220.25,170L220.25,170z"
   id="path4" />
	<path
   class="st0"
   d="M137.57,194.88c1.75-16.66,16.3-28.78,32.5-27.07c16.2,1.71,27.91,16.59,26.17,33.25   c-1.75,16.66-16.3,28.78-32.5,27.07C147.54,226.42,135.83,211.54,137.57,194.88L137.57,194.88z"
   id="path6" />
	<path
   class="st0"
   d="M173.58,134.59c1.28-12.23,12.23-21.1,24.46-19.81c12.23,1.28,21.1,12.24,19.82,24.47   c-1.28,12.23-12.24,21.09-24.46,19.81C181.16,157.77,172.29,146.81,173.58,134.59L173.58,134.59z"
   id="path8" />
	<path
   class="st0"
   d="M198.69,231.28c1.28-12.23,12.23-21.1,24.46-19.81c12.23,1.29,21.1,12.24,19.82,24.47   c-1.28,12.23-12.24,21.1-24.46,19.81C206.29,254.46,197.41,243.5,198.69,231.28L198.69,231.28z"
   id="path10" />
	<path
   class="st1"
   d="M270.84,136.38c-2.73-6.76,2.74-15.35,12.23-19.18c9.49-3.83,19.4-1.46,22.13,5.3   c2.74,6.76-2.74,15.34-12.23,19.18C283.49,145.51,273.58,143.13,270.84,136.38L270.84,136.38z"
   id="path12" />
	<path
   class="st1"
   d="M114.26,255.38c-4.05-10-0.47-20.88,8-24.3c8.47-3.42,18.61,1.92,22.66,11.92c4.05,10,0.47,20.89-8,24.31   C128.45,270.72,118.31,265.38,114.26,255.38L114.26,255.38z"
   id="path14" />
	<path
   class="st1"
   d="M222.28,98.25c3.87-7.28,12.98-10.01,20.34-6.09c7.37,3.92,10.2,13,6.33,20.28c-3.87,7.28-12.98,10-20.34,6.08   C221.25,114.61,218.42,105.53,222.28,98.25L222.28,98.25z"
   id="path16" />
	<path
   class="st1"
   d="M156.86,267.17c0.96-9.17,10.29-15.71,20.84-14.6c10.55,1.11,18.32,9.45,17.36,18.62   c-0.96,9.17-10.29,15.71-20.85,14.6C163.67,284.68,155.9,276.35,156.86,267.17L156.86,267.17z"
   id="path18" />
	<path
   class="st2"
   d="M314.24,113.54c0.64-6.09,7.43-10.37,15.18-9.56c7.74,0.81,13.5,6.41,12.86,12.51   c-0.64,6.09-7.43,10.37-15.18,9.56C319.35,125.23,313.6,119.63,314.24,113.54L314.24,113.54z"
   id="path20" />
	<path
   class="st3"
   d="M355.11,105.47c0.51-4.84,6.89-8.14,14.24-7.37c7.36,0.78,12.91,5.33,12.41,10.18   c-0.5,4.84-6.88,8.14-14.24,7.37C360.16,114.87,354.6,110.32,355.11,105.47L355.11,105.47z"
   id="path22" />
	<path
   class="st2"
   d="M233.32,66.62c0.55-5.3,6.97-8.97,14.33-8.2c7.36,0.77,12.87,5.7,12.31,11c-0.55,5.3-6.97,8.97-14.33,8.2   C238.27,76.85,232.76,71.92,233.32,66.62L233.32,66.62z"
   id="path24" />
	<path
   class="st4"
   d="M183.32,343.69c-0.79-4.5,3.82-9.07,10.31-10.22c6.49-1.14,12.39,1.58,13.19,6.08   c0.79,4.5-3.82,9.07-10.31,10.21C190.02,350.91,184.11,348.19,183.32,343.69L183.32,343.69z"
   id="path26" />
	<path
   class="st2"
   d="M79.32,250.3c3.94-4.7,12.25-4.2,18.57,1.11c6.31,5.3,8.24,13.41,4.31,18.11c-3.94,4.69-12.25,4.19-18.57-1.11   C77.31,263.1,75.38,254.99,79.32,250.3L79.32,250.3z"
   id="path28" />
	<path
   class="st4"
   d="M42.37,263.06c2.52-4.03,10.46-3.61,17.74,0.94c7.28,4.55,11.13,11.51,8.62,15.55   c-2.52,4.03-10.46,3.61-17.74-0.94C43.71,274.05,39.85,267.09,42.37,263.06L42.37,263.06z"
   id="path30" />
	<path
   class="st3"
   d="M10.85,275.23c1.96-3.13,8.93-2.3,15.58,1.86c6.65,4.16,10.45,10.07,8.5,13.19   c-1.96,3.13-8.93,2.29-15.58-1.86C12.7,284.26,8.9,278.36,10.85,275.23L10.85,275.23z"
   id="path32" />
	<path
   class="st3"
   d="M229.82,31.27c0.47-4.54,5.43-7.74,11.07-7.15c5.64,0.59,9.82,4.76,9.34,9.3c-0.47,4.54-5.43,7.74-11.07,7.15   C233.53,39.98,229.34,35.82,229.82,31.27L229.82,31.27z"
   id="path34" />
	<path
   class="st3"
   d="M191.71,372.34c-0.75-4.23,3.29-8.48,9.02-9.49c5.72-1.01,10.98,1.6,11.72,5.83c0.75,4.23-3.29,8.48-9.02,9.49   C197.71,379.17,192.46,376.57,191.71,372.34L191.71,372.34z"
   id="path36" />
	<path
   class="st1"
   d="M122.36,134.23c0.87-8.26,9.26-14.13,18.76-13.14c9.49,1,16.49,8.5,15.62,16.76   c-0.87,8.25-9.27,14.14-18.76,13.14C128.49,149.99,121.49,142.49,122.36,134.23L122.36,134.23z"
   id="path38" />
	<path
   class="st2"
   d="M102.68,97.14c0.59-5.64,6.98-9.59,14.26-8.82c7.28,0.77,12.71,5.96,12.12,11.6   c-0.59,5.64-6.98,9.59-14.26,8.82C107.52,107.97,102.09,102.78,102.68,97.14L102.68,97.14z"
   id="path40" />
	<path
   class="st3"
   d="M72.83,71c0.43-4.08,5.72-6.88,11.81-6.23c6.1,0.64,10.69,4.47,10.26,8.56c-0.43,4.09-5.71,6.87-11.81,6.23   C77,78.92,72.41,75.09,72.83,71L72.83,71z"
   id="path42" />
	<path
   class="st2"
   d="M174.1,319.79c-3.69-4.89-1.35-12.88,5.24-17.84c6.59-4.96,14.92-5.02,18.61-0.12   c3.69,4.89,1.34,12.88-5.24,17.85C186.13,324.63,177.79,324.69,174.1,319.79L174.1,319.79z"
   id="path44" />
</g>
<text
   transform="matrix(1 0 0 1 274.7324 348.506)"
   class="st5 st6 st7 st8"
   id="text48"><tspan
     style="-inkscape-font-specification:'ITC Officina Sans Book, Medium';font-family:'ITC Officina Sans Book';font-weight:500;font-style:normal;font-stretch:normal;font-variant:normal;font-size:115px;text-anchor:start;text-align:start;writing-mode:lr;font-variant-ligatures:normal;font-variant-caps:normal;font-variant-numeric:normal;font-feature-settings:normal"
     id="tspan864">G-Node</tspan></text>

<text
   transform="matrix(1 0 0 1 278.8029 378.7059)"
   class="st5 st6 st9"
   id="text50"><tspan
     style="-inkscape-font-specification:'Eurostile, Normal';font-family:Eurostile;font-weight:normal;font-style:normal;font-stretch:normal;font-variant:normal;font-size:28px;text-anchor:start;text-align:start;writing-mode:lr;font-variant-ligatures:normal;font-variant-caps:normal;font-variant-numeric:normal;font-feature-settings:normal"
     id="tspan866">German Neuroinformatics Node</tspan></text>

</svg>