<?xml version="1.0" encoding="UTF-8" standalone="no"?>
<svg
   xmlns:dc="http://purl.org/dc/elements/1.1/"
   xmlns:cc="http://creativecommons.org/ns#"
   xmlns:rdf="http://www.w3.org/1999/02/22-rdf-syntax-ns#"
   xmlns:svg="http://www.w3.org/2000/svg"
   xmlns="http://www.w3.org/2000/svg"
   version="1.1"
   id="svg4497"
   viewBox="0 0 726.70143 481.47788"
   height="135.88376mm"
   width="205.09129mm">
  <defs
     id="defs4499">
    <clipPath
       clipPathUnits="userSpaceOnUse"
       id="clipPath4975">
      <path
         d="M 0,0 212,0 212,141 0,141 0,0 Z"
         id="path4977" />
    </clipPath>
    <clipPath
       clipPathUnits="userSpaceOnUse"
       id="clipPath4987">
      <path
         d="M 0,0 212,0 212,141 0,141 0,0 Z"
         id="path4989" />
    </clipPath>
    <clipPath
       clipPathUnits="userSpaceOnUse"
       id="clipPath4997">
      <path
         d="m 0,141 211.453,0 0,-141 L 0,0 0,141 Z"
         id="path4999" />
    </clipPath>
    <clipPath
       clipPathUnits="userSpaceOnUse"
       id="clipPath5007">
      <path
         d="M 0,0 212,0 212,141 0,141 0,0 Z"
         id="path5009" />
    </clipPath>
    <clipPath
       clipPathUnits="userSpaceOnUse"
       id="clipPath5017">
      <path
         d="M 0,141 212,141 212,0.5 0,0.5 0,141 Z"
         id="path5019" />
    </clipPath>
    <clipPath
       clipPathUnits="userSpaceOnUse"
       id="clipPath5027">
      <path
         d="M 0,0 212,0 212,141 0,141 0,0 Z"
         id="path5029" />
    </clipPath>
  </defs>
  <metadata
     id="metadata4502">
    <rdf:RDF>
      <cc:Work
         rdf:about="">
        <dc:format>image/svg+xml</dc:format>
        <dc:type
           rdf:resource="http://purl.org/dc/dcmitype/StillImage" />
        <dc:title></dc:title>
      </cc:Work>
    </rdf:RDF>
  </metadata>
  <g
     transform="translate(-11.649296,-291.62327)"
     id="layer1">
    <g
       transform="matrix(3.4377772,0,0,-3.437777,11.649296,773.10226)"
       id="g4967"
       style="display:inline">
      <g
         id="g4969"
         transform="translate(0,-0.944672)">
        <g
           id="g4971">
          <g
             id="g4973"
             clip-path="url(#clipPath4975)">
            <g
               id="g4979">
              <g
                 id="g4981">
                <g
                   id="g4983">
                  <g
                     id="g4985"
                     clip-path="url(#clipPath4987)">
                    <g
                       id="g4991" />
                    <g
                       id="g4993">
                      <g
                         id="g4995"
                         clip-path="url(#clipPath4997)">
                        <g
                           id="g5001">
                          <g
                             id="g5003">
                            <g
                               id="g5005"
                               clip-path="url(#clipPath5007)">
                              <g
                                 id="g5011" />
                              <g
                                 id="g5013">
                                <g
                                   id="g5015"
                                   clip-path="url(#clipPath5017)">
                                <g
                                   id="g5021">
                                <g
                                   id="g5023">
                                <g
                                   id="g5025"
                                   clip-path="url(#clipPath5027)">
                                <g
                                   id="g5031">
                                <path
                                   d="m 115.043,110.516 c 0,-5.164 -4.188,-9.356 -9.344,-9.356 -5.168,0 -9.355,4.192 -9.355,9.356 0,5.164 4.187,9.347 9.355,9.347 5.156,0 9.344,-4.183 9.344,-9.347"
                                   style="fill:#ed6a1c;fill-opacity:1;fill-rule:nonzero;stroke:none"
                                   id="path5033" />
                                <path
                                   d="m 211.078,43.32 -26.91,0 -15.473,-15.465 -15.465,15.465 -12.011,0 L 105.648,7.758 70.078,43.32 58.156,43.32 42.691,27.855 27.23,43.32 0,43.32 0.324,43.004 C 0.496,19.742 19.395,0.945 42.691,0.945 l 126.012,0 c 23.289,0 42.192,18.797 42.363,42.059 l 0.321,0.316 -0.309,0 z"
                                   style="fill:#2d4b9a;fill-opacity:1;fill-rule:nonzero;stroke:none"
                                   id="path5035" />
                                <path
                                   d="m 129.223,84.527 c -2.145,-3.707 -3.211,-8.504 -3.211,-14.386 l 0,-19.934 35.875,0 0,24.629 c 0,5.699 2.238,8.547 6.715,8.547 4.605,0 6.906,-3.301 6.906,-9.887 l 0,-23.289 35.879,0 0,21.273 c 0,5.688 -0.867,10.301 -2.59,13.817 -1.727,3.515 -4.77,6.746 -9.113,9.691 4.281,2.809 7.308,6.051 9.066,9.739 1.754,3.671 2.637,8.511 2.637,14.523 l 0,21.75 -35.879,0 0,-24.91 c 0,-5.695 -2.274,-8.543 -6.813,-8.543 -1.98,0 -3.605,0.801 -4.89,2.402 -1.278,1.602 -1.918,3.645 -1.918,6.141 l 0,24.91 -35.875,0 0,-20.398 c 0,-5.95 1.066,-10.848 3.211,-14.684 2.136,-3.84 5.871,-7.48 11.175,-10.93 -5.304,-3.265 -9.039,-6.75 -11.175,-10.461"
                                   style="fill:#2d4b9a;fill-opacity:1;fill-rule:nonzero;stroke:none"
                                   id="path5037" />
                                <path
                                   d="m 35.879,50.207 0,47.125 c 0,5.5 2.238,8.25 6.715,8.25 4.547,0 6.812,-2.75 6.812,-8.25 l 0,-47.125 35.879,0 0,43.574 c 0,13.813 -3.226,24.586 -9.691,32.328 -8.25,9.914 -19.215,14.868 -32.903,14.868 -11.961,0 -22.062,-4.266 -30.316,-12.801 C 4.125,119.641 0,109.129 0,96.656 l 0,-46.449 35.879,0 z"
                                   style="fill:#2d4b9a;fill-opacity:1;fill-rule:nonzero;stroke:none"
                                   id="path5039" />
                                </g>
                                </g>
                                </g>
                                </g>
                                </g>
                              </g>
                            </g>
                          </g>
                        </g>
                      </g>
                    </g>
                  </g>
                </g>
              </g>
            </g>
          </g>
        </g>
      </g>
    </g>
  </g>
</svg>
